<svg xmlns="http://www.w3.org/2000/svg" style="width:100%" viewBox="0 0 1142.0501 188.2589"><g font-family="Shrikhand" letter-spacing="0" word-spacing="0"><path d="M16.64 77.6c.4 28.38 47.62 30.2 48.03 46.22 0 6.9-5.47 10.74-12.16 10.74-3.6 0-6-.4-9.3-1.22 3.7-16.4-9.3-27.76-23.9-27.76-8.9 0-16 3.65-18.4 11.75-5.7 20.87 18 33.24 58.1 33.24 32.7 0 52.7-11.55 57-29.4 8.1-35.05-53.7-36.06-53.9-55.1-.2-6.1 5.1-9.33 11.6-9.33 2 0 4.3.4 6.5 1-4.1 13.2 8.1 22.9 23.3 22.9 13.8 0 21.3-6.88 21.1-16.4-.6-13.58-20.44-23.5-54.5-23.5-35.24 0-53.7 15.2-53.3 36.87z" style="line-height:125%;-inkscape-font-specification:Shrikhand"/><path d="M179.4 133.14c-2.23 0-4.26-.8-5.88-2.43l16-52.8c4.26-6.5 8.72-7.7 10.34-7.7 5.07 0 8.3 2.9.2 31.8-7.9 28-14.8 31.2-20.67 31.2zm-8.1-90.58c-16.22 0-35.27 5.26-36.9 11.75-1.82 6.7 9.53 5.9 6.5 15.4l-29.6 97.1c-3.44 12.2-10.74 9.5-12.36 15.4-1.2 3.5 1.83 6.1 8.92 6.1h46.4c8.52 0 12.16-1.4 13.18-4.8 1.62-5.4-8.72-5-5.07-16l6.5-21.7c7.08 4.1 16 5.9 24.3 5.9 27.97 0 52.7-16.6 61.2-51.3 8.5-34.4-4.05-58.5-30.8-58.5-10.74 0-21.48 5.5-31 17.7-1.22-10.6-9.33-16.9-21.27-16.9zm153.27 15.8c1.83 0 3.04 1.83 3.24 5.68.3 12.16-5.6 27.15-19.4 25.33 4.3-20.88 12.2-31 16.2-31zm-62 33.44c-8.1 39.52 16.8 58.56 49.64 58.56 32.5 0 47.7-20.67 47.5-33.64 0-2.02-.8-2.63-2.2-2.63-4.2 0-16.4 6.4-28.3 6.4-12.5 0-22.3-4.1-22.1-19.1 23.9 3.4 61.8 1.2 67.5-23.7 3.9-17.3-5-36.3-48-36.3-31.4 0-56.9 16-63.8 50.2zm175.6-33.44c1.82 0 3.03 1.83 3.24 5.68.2 12.16-5.6 27.15-19.4 25.33 4.3-20.88 12.2-31 16.2-31zm-62 33.44c-8.1 39.52 16.8 58.56 49.63 58.56 32.43 0 47.63-20.67 47.42-33.64 0-2.02-.8-2.63-2.23-2.63-4.3 0-16.5 6.4-28.4 6.4-12.6 0-22.3-4.1-22.1-19.1 23.9 3.4 61.8 1.2 67.5-23.7 3.8-17.3-5.1-36.3-48.1-36.3-31.4 0-57 16-63.9 50.2zm250.97-66.47C631.4 11.35 626.74 0 605.66 0c-16.2 0-35.26 5.27-36.88 11.55-1.62 6.7 9.73 5.88 6.7 15.6l-6.9 22.7c-6.28-5.07-14-8.1-26.14-8.1-33.44 0-55.73 35.66-55.12 72.54.4 21.8 16.82 36 34.85 36 10.34 0 20.06-4.5 27.56-14 3.65 8.3 14.4 14 27.97 14 17.83 0 31.8-13.2 31.6-24.1 0-2.3-.8-4.7-2.22-4.7-1.62 0-2.63 4.2-6.48 4.2-2.23 0-3.45-2-2.44-5.3l28.98-95.3zm-78.62 89.57c-2.03 6.5-4.26 9.12-7.9 9.12-5.07 0-7.3-3.85-7.3-11.15-.4-19.65 11.35-52.08 23.9-52.08 2.85 0 5.08 1 7.1 2.8l-15.8 51.2zm84.46-37.3c.4 28.38 47.62 30.2 48.02 46.22 0 6.9-5.47 10.74-12.16 10.74-3.64 0-6.07-.4-9.32-1.22 3.65-16.4-9.32-27.76-23.9-27.76-8.93 0-16.02 3.65-18.45 11.75-5.67 20.88 18.04 33.24 58.16 33.24 32.63 0 52.7-11.55 56.94-29.4 8.1-35.05-53.7-36.06-53.9-55.1-.2-6.1 5.07-9.33 11.55-9.33 2.03 0 4.26.4 6.48 1-4.05 13.2 8.1 22.9 23.3 22.9 13.8 0 21.3-6.88 21.08-16.4-.6-13.58-20.46-23.5-54.5-23.5-35.27 0-53.7 15.2-53.3 36.87zM765.7 11.55c-1.64 6.7 9.7 5.67 6.67 15.6l-30.8 101.13c-3.65 12.15-10.94 9.52-12.77 15.2-1 3.64 2.03 6.28 9.33 6.28h46.2c8.7 0 12.16-1.63 13.37-5.07 1.42-5.3-8.9-4.7-5.47-16.1L805 87.5v.4c3.65-11.52 9.93-15 14.18-15 4.06 0 7.5 3.28 4.87 9.96l-11.15 29.17c-2.43 6.3-3.64 12.16-3.64 16.82.2 13.77 11.55 22.7 29.38 22.7 22.9 0 34.65-12.98 34.45-24.13 0-2.22-.9-4.45-2.3-4.45s-2.7 4.3-6.5 4.3c-2.2 0-3.5-2.2-2.2-5.45l12.4-39.94c6.9-22.3-4.9-39.3-25.6-39.3-12.4 0-24.5 3.65-35.9 18.45l11-35.63c4.2-14-.4-25.35-21.5-25.35-16.2 0-35.3 5.27-36.9 11.55zm115.54 84.9c-6.9 29.8 6.7 55.13 53.5 55.13 36.07 0 65.46-21.48 73.36-55.12 6.7-28.17-5.88-53.9-52.08-53.9-36.07 0-67.08 21.88-74.78 53.9zm72.96.2c-9.93 32.23-15.4 37.7-20.27 37.3-5.06 0-9.12-3.65 1.22-37.1 9.52-30.6 15.4-36.26 20.26-36.26 5.1 0 9 4.2-1.2 36z" style="line-height:125%;-inkscape-font-specification:Shrikhand"/><path d="M1064.43 133.14c-2.23 0-4.25-.8-5.87-2.43l16-52.8c4.26-6.5 8.72-7.7 10.34-7.7 5.07 0 8.3 2.9.2 31.8-7.9 28-14.8 31.2-20.67 31.2zm-8.1-90.58c-16.2 0-35.26 5.26-36.88 11.75-1.83 6.7 9.52 5.9 6.48 15.4l-29.6 97.1c-3.43 12.2-10.73 9.5-12.35 15.4-1.2 3.5 1.83 6.1 8.92 6.1h46.4c8.52 0 12.16-1.4 13.18-4.8 1.62-5.4-8.72-5-5.07-16l6.5-21.7c7.1 4.1 16 5.9 24.3 5.9 28 0 52.7-16.6 61.2-51.3 8.6-34.4-4-58.5-30.8-58.5-10.7 0-21.4 5.5-31 17.7-1.2-10.5-9.3-16.8-21.2-16.8z" style="line-height:125%;-inkscape-font-specification:Shrikhand"/></g></svg>