<svg xmlns="http://www.w3.org/2000/svg" viewBox="0 0 153.79747 72.151901">
  <g class="logo" fill="white">
    <g transform="translate(0 -.17)">
      <path d="M38.5 66.4c.64-.46 1.94-1.48 2.76-2.4 2.42-2.74 2.4-5.66-14.83-29.14-5.74-7.83-7.9-12.46-7.9-17.06C19.8 6.32 29.23 7.02 34.7 7.02c4.8-.06 11.03 0 15.9 0l-1.48 1.05c-2.83 1.95-4.8 4-3.76 7.22.76 2.27 6.3 10.65 13.4 20.25 7.93 10.7 10.3 15.18 10.6 20.14.16 8.92-8.43 11.53-13.38 11.54h-18.6z"/><circle cx="20.24" cy="54.69" r="12.63"/>
      <circle r="12.63" cy="19.54" cx="67.48"/>
    </g>
    <g transform="translate(67.146 -.17)">
      <path d="M38.5 66.4c.64-.46 1.94-1.48 2.76-2.4 2.42-2.74 2.4-5.66-14.83-29.14-5.74-7.83-7.9-12.46-7.9-17.06C19.8 6.32 29.23 7.02 34.7 7.02c4.8-.06 11.03 0 15.9 0l-1.48 1.05c-2.83 1.95-4.8 4-3.76 7.22.76 2.27 6.3 10.65 13.4 20.25 7.93 10.7 10.3 15.18 10.6 20.14.16 8.92-8.43 11.53-13.38 11.54h-18.6z"/><circle r="12.63" cy="54.69" cx="20.24"/><circle cx="67.48" cy="19.54" r="12.63"/>
    </g>
  </g>
</svg>
