<?xml version="1.0" encoding="UTF-8" standalone="no"?>
<svg
   xmlns:dc="http://purl.org/dc/elements/1.1/"
   xmlns:cc="http://creativecommons.org/ns#"
   xmlns:rdf="http://www.w3.org/1999/02/22-rdf-syntax-ns#"
   xmlns:svg="http://www.w3.org/2000/svg"
   xmlns="http://www.w3.org/2000/svg"
   shape-rendering="crispEdges"
   height="1080"
   width="1920"
   version="1.1"
   id="svg2"
   viewBox="0 0 1920 1080">
  <metadata
     id="metadata26">
    <rdf:RDF>
      <cc:Work
         rdf:about="">
        <dc:format>image/svg+xml</dc:format>
        <dc:type
           rdf:resource="http://purl.org/dc/dcmitype/StillImage" />
        <dc:title></dc:title>
      </cc:Work>
    </rdf:RDF>
  </metadata>
  <defs
     id="defs24" />
  <path
     id="path8"
     d="m 432.8166,936.54189 c 8.6661,-6.22876 26.26912,-20.04036 37.37256,-32.49788 32.7687,-37.10175 32.49789,-76.64085 -200.80984,-394.57848 -77.7241,-106.02434 -106.9722,-168.71818 -106.9722,-231.00579 17.1968,-155.44821 144.8864,-145.96966 218.95449,-145.96966 64.99577,-0.81245 149.35486,0 215.29848,0 l -20.04036,14.21782 c -38.32042,26.40453 -64.99576,54.16314 -50.91335,97.76447 10.291,30.73758 85.30695,144.20936 181.44652,274.2009 107.37843,144.8864 139.47009,205.54911 143.53232,272.71141 2.16653,120.7838 -114.14882,156.12525 -181.1757,156.26066 l -251.8586,0 z"
     style="fill:#ffffff" />
  <circle
     id="circle10"
     r="171.02011"
     cy="777.97931"
     cx="185.56186"
     style="fill:#ffffff" />
  <circle
     id="circle12"
     cx="825.22858"
     cy="302.02072"
     r="171.02011"
     style="fill:#ffffff" />
  <path
     id="path16"
     d="m 1342.0261,936.54189 c 8.6661,-6.22876 26.2692,-20.04036 37.3726,-32.49788 32.7687,-37.10175 32.4979,-76.64085 -200.8098,-394.57848 -77.7241,-106.02434 -106.9722,-168.71818 -106.9722,-231.00579 17.1968,-155.44821 144.8864,-145.96966 218.9545,-145.96966 64.9957,-0.81245 149.3548,0 215.2984,0 l -20.0403,14.21782 c -38.3204,26.40453 -64.9958,54.16314 -50.9134,97.76447 10.291,30.73758 85.307,144.20936 181.4465,274.2009 107.3785,144.8864 139.4701,205.54911 143.5324,272.71141 2.1665,120.7838 -114.1488,156.12525 -181.1757,156.26066 l -251.8586,0 z"
     style="fill:#ffffff" />
  <circle
     id="circle18"
     cx="1094.7714"
     cy="777.97931"
     r="171.02011"
     style="fill:#ffffff" />
  <circle
     id="circle20"
     r="171.02011"
     cy="302.02072"
     cx="1734.4381"
     style="fill:#ffffff" />
</svg>
