<svg height="200.809" viewBox="0 0 1648.3108 188.2589" xmlns="http://www.w3.org/2000/svg"><path d="m16.64 77.614c.406 28.37 47.622 30.194 48.028 46.203 0 6.89-5.472 10.74-12.16 10.74-3.647 0-6.079-.405-9.32-1.215 3.647-16.415-9.323-27.763-23.913-27.763-8.917 0-16.01 3.648-18.441 11.754-5.674 20.872 18.035 33.234 58.16 33.234 32.626 0 52.688-11.551 56.943-29.384 8.106-35.058-53.701-36.071-53.904-55.12-.202-6.08 5.066-9.322 11.551-9.322 2.027 0 4.256.406 6.485 1.014-4.053 13.172 8.106 22.899 23.304 22.899 13.78 0 21.278-6.89 21.075-16.415-.607-13.577-20.467-23.507-54.512-23.507-35.26 0-53.7 15.199-53.296 36.882z"/><path d="m179.394 133.139c-2.229 0-4.255-.81-5.876-2.432l16.009-52.89c4.255-6.485 8.714-7.701 10.335-7.701 5.066 0 8.308 2.837.202 31.816-7.903 27.965-14.793 31.207-20.67 31.207zm-8.105-90.583c-16.212 0-35.26 5.269-36.882 11.754-1.824 6.687 9.524 5.876 6.485 15.4l-29.587 97.069c-3.445 12.158-10.74 9.524-12.361 15.4-1.216 3.446 1.824 6.08 8.916 6.08h46.406c8.511 0 12.16-1.418 13.172-4.863 1.622-5.472-8.713-5.067-5.066-16.01l6.485-21.683c7.093 4.053 16.009 5.877 24.317 5.877 27.966 0 52.689-16.617 61.2-51.27 8.511-34.45-4.053-58.565-30.802-58.565-10.74 0-21.481 5.472-31.005 17.63-1.216-10.537-9.322-16.819-21.278-16.819zm153.283 15.806c1.824 0 3.04 1.824 3.242 5.675.203 12.158-5.674 27.154-19.454 25.33 4.256-20.872 12.159-31.005 16.212-31.005zm-62.01 33.437c-8.106 39.516 16.82 58.565 49.648 58.565 32.424 0 47.622-20.67 47.42-33.64 0-2.026-.81-2.634-2.23-2.634-4.255 0-16.414 6.485-28.37 6.485-12.564 0-22.291-4.053-22.088-19.049 23.912 3.445 61.807 1.216 67.481-23.71 3.85-17.224-5.066-36.273-48.027-36.273-31.41 0-56.944 16.009-63.834 50.256zm175.603-33.437c1.824 0 3.04 1.824 3.242 5.675.203 12.158-5.674 27.154-19.454 25.33 4.256-20.872 12.16-31.005 16.212-31.005zm-62.01 33.437c-8.106 39.516 16.82 58.565 49.649 58.565 32.423 0 47.622-20.67 47.419-33.64 0-2.026-.81-2.634-2.23-2.634-4.255 0-16.414 6.485-28.37 6.485-12.564 0-22.29-4.053-22.088-19.049 23.912 3.445 61.807 1.216 67.481-23.71 3.85-17.224-5.066-36.273-48.027-36.273-31.41 0-56.944 16.009-63.834 50.256zm250.988-66.468c4.255-13.983-.406-25.33-21.48-25.33-16.213 0-35.261 5.268-36.883 11.55-1.62 6.687 9.727 5.877 6.688 15.604l-6.89 22.696c-6.282-5.066-13.983-8.106-26.142-8.106-33.436 0-55.728 35.666-55.12 72.548.406 21.886 16.82 36.071 34.856 36.071 10.335 0 20.062-4.458 27.56-13.983 3.647 8.309 14.387 13.983 27.965 13.983 17.833 0 31.815-13.172 31.613-24.115 0-2.229-.81-4.66-2.23-4.66-1.62 0-2.634 4.255-6.484 4.255-2.23 0-3.445-2.027-2.432-5.269zm-78.627 89.57c-2.027 6.485-4.256 9.119-7.904 9.119-5.066 0-7.295-3.85-7.295-11.146-.405-19.656 11.348-52.08 23.912-52.08 2.838 0 5.067 1.013 7.093 2.837zm84.46-37.287c.406 28.37 47.623 30.194 48.028 46.203 0 6.89-5.472 10.74-12.159 10.74-3.648 0-6.08-.405-9.322-1.215 3.648-16.415-9.321-27.763-23.912-27.763-8.916 0-16.01 3.648-18.44 11.754-5.675 20.872 18.035 33.234 58.159 33.234 32.626 0 52.688-11.551 56.944-29.384 8.105-35.058-53.702-36.071-53.905-55.12-.202-6.08 5.067-9.322 11.551-9.322 2.027 0 4.256.406 6.485 1.014-4.053 13.172 8.106 22.899 23.304 22.899 13.78 0 21.278-6.89 21.076-16.415-.608-13.577-20.468-23.507-54.512-23.507-35.26 0-53.702 15.199-53.296 36.882zm132.71-66.063c-1.621 6.687 9.727 5.674 6.687 15.604l-30.802 101.12c-3.647 12.16-10.943 9.525-12.767 15.2-1.013 3.647 2.027 6.281 9.322 6.281h46.204c8.713 0 12.158-1.621 13.374-5.066 1.419-5.269-8.916-4.66-5.471-16.01l12.767-41.136v.405c3.647-11.551 9.93-14.996 14.185-14.996 4.053 0 7.498 3.242 4.863 9.93l-11.145 29.18c-2.432 6.283-3.648 12.16-3.648 16.82.203 13.78 11.551 22.697 29.384 22.697 22.9 0 34.653-12.97 34.45-24.115 0-2.23-.81-4.458-2.23-4.458-1.418 0-2.634 4.255-6.484 4.255-2.229 0-3.445-2.229-2.229-5.471l12.361-39.922c6.89-22.29-4.863-39.313-25.533-39.313-12.361 0-24.52 3.648-35.869 18.44l10.943-35.665c4.256-13.983-.405-25.33-21.48-25.33-16.212 0-35.26 5.268-36.882 11.55zm115.559 84.91c-6.89 29.788 6.687 55.119 53.498 55.119 36.071 0 65.455-21.48 73.358-55.12 6.688-28.168-5.876-53.904-52.08-53.904-36.07 0-67.076 21.886-74.776 53.904zm72.952.202c-9.93 32.22-15.4 37.692-20.264 37.287-5.066 0-9.12-3.648 1.216-37.085 9.524-30.6 15.4-36.273 20.264-36.273 5.066 0 8.917 4.255-1.216 36.07z"/><path d="m1064.433 133.139c-2.229 0-4.255-.81-5.877-2.432l16.01-52.89c4.255-6.485 8.713-7.701 10.335-7.701 5.066 0 8.308 2.837.202 31.816-7.903 27.965-14.793 31.207-20.67 31.207zm-8.106-90.583c-16.211 0-35.26 5.269-36.881 11.754-1.824 6.687 9.524 5.876 6.484 15.4l-29.586 97.069c-3.445 12.158-10.74 9.524-12.362 15.4-1.215 3.446 1.824 6.08 8.917 6.08h46.406c8.511 0 12.159-1.418 13.172-4.863 1.621-5.472-8.714-5.067-5.066-16.01l6.485-21.683c7.092 4.053 16.009 5.877 24.317 5.877 27.965 0 52.688-16.617 61.2-51.27 8.51-34.45-4.053-58.565-30.803-58.565-10.74 0-21.48 5.472-31.005 17.63-1.216-10.537-9.321-16.819-21.278-16.819z"/><path d="m1189.227 30.543-13.072 13.072h-11.62c-8.091 0-10.996 2.282-12.033 5.602-2.283 9.544 16.806 11.204 11.411 28.218l-13.279 41.082c-6.64 20.541 6.847 34.028 29.463 34.028 28.01 0 47.307-16.806 47.1-24.483 0-1.868-1.038-3.32-2.905-3.32-2.905 0-7.262 1.452-12.657 1.452-5.602 0-10.167-2.075-6.847-13.071l15.562-51.25h12.034c6.64 0 10.789-3.32 12.449-9.129 1.452-5.81-1.245-9.13-7.885-9.13h-10.995l2.904-9.544c2.905-9.959-1.037-15.769-12.241-15.769-12.657 0-18.881 3.735-27.388 12.242zm119.142 36.518c4.357-14.317-.207-26.144-21.786-26.144-16.599 0-36.103 5.395-37.763 12.035-1.867 6.847 9.752 5.81 6.64 15.769l-13.279 43.364c-8.714 25.728 10.167 39.215 32.16 39.215 12.242 0 24.691-5.395 34.858-16.806 2.49 10.166 11.827 18.05 28.84 18.05 20.542 0 34.236-13.278 34.028-24.69 0-2.282-1.037-4.565-2.49-4.565-1.452 0-2.697 4.358-6.639 4.358-2.282 0-3.32-2.283-2.282-5.603l16.806-54.983c4.565-14.317 0-26.144-21.786-26.144-16.599 0-36.103 5.395-37.555 12.035-2.075 6.847 9.544 5.81 6.432 15.769l-12.657 41.704c-2.697 6.64-5.602 9.96-11.411 9.96-4.565 0-7.47-3.32-5.188-10.167zm186.229-26.144c-13.487 0-26.558 4.15-38.8 21.579.83-13.694-8.092-21.579-21.786-21.579-16.6 0-36.103 5.395-37.763 12.035-1.867 6.847 9.545 5.81 6.64 15.769l-18.466 59.963c-3.943 12.45-11.205 9.752-13.072 15.561-.83 3.735 2.075 6.433 9.544 6.433h47.307c8.922 0 12.657-1.66 13.694-5.188 1.66-5.394-9.13-4.772-5.394-16.391l12.864-42.327c2.49-8.092 8.507-14.732 14.731-14.732 4.15 0 7.677 3.32 4.98 10.167l-11.412 29.878c-2.49 6.432-3.735 12.45-3.735 17.221.208 14.11 11.827 23.239 30.086 23.239 23.446 0 35.48-13.28 35.273-24.69 0-2.283-.83-4.566-2.283-4.566-1.452 0-2.697 4.358-6.64 4.358-2.282 0-3.527-2.283-2.282-5.603l12.657-40.874c7.054-22.824-4.98-40.253-26.143-40.253zm101.843 16.184c1.867 0 3.112 1.868 3.32 5.81.207 12.45-5.81 27.803-19.919 25.936 4.357-21.371 12.45-31.746 16.599-31.746zm-63.49 34.236c-8.3 40.46 17.22 59.963 50.833 59.963 33.198 0 48.76-21.164 48.552-34.443 0-2.075-.83-2.697-2.282-2.697-4.357 0-16.807 6.64-29.048 6.64-12.864 0-22.824-4.15-22.616-19.504 24.483 3.527 63.283 1.245 69.093-24.276 3.942-17.636-5.187-37.14-49.175-37.14-32.16 0-58.303 16.391-65.358 51.457z" fill="#4d4d4d"/></svg>