<svg xmlns="http://www.w3.org/2000/svg" viewBox="0 0 1920 1080" width="1920px" height="1080px" preserveAspectRatio="xMidYMid slice">
  <defs>
    <style type="text/css"><![CDATA[
      svg mask rect {
        fill: rgba(255, 255, 255, 1);
      }

      svg > rect {
        fill: black;
        -webkit-mask: url(#mask);
        mask: url(#mask);
      }
    ]]></style>
    <mask id="mask" x="0" y="0" width="1920" height="1080" >
      <rect x="0" y="0" width="1920" height="1080"/>
        <path transform="scale(0.2)translate(100,700)" d="M432.82 936.54c8.66-6.23 26.27-20.04 37.37-32.5 32.73-37.1 32.5-76.64-200.85-394.57-77.72-106.03-106.97-168.72-106.97-231 17.2-155.47 144.9-146 218.96-146 65-.8 149.36 0 215.3 0l-20.04 14.2c-38.32 26.4-65 54.18-50.9 97.78C536 275.2 611 388.67 707.12 518.67c107.4 144.9 139.5 205.55 143.56 272.7 2.15 120.8-114.16 156.14-181.2 156.28H417.66z" />
        <circle  transform="scale(0.2)translate(100, 700)" r="171.02" cy="777.98" cx="185.56" />
        <circle  transform="scale(0.2)translate(100, 700)" cx="825.23" cy="302.02" r="171.02" />
        <path  transform="scale(0.2)translate(100, 700)" d="M1342.03 936.54c8.66-6.23 26.27-20.04 37.37-32.5 32.77-37.1 32.5-76.64-200.8-394.57-77.74-106.03-106.98-168.72-106.98-231C1088.82 123 1216.5 132.5 1290.57 132.5c65-.83 149.36 0 215.3 0l-20.04 14.2c-38.32 26.4-65 54.16-50.9 97.76 10.28 30.74 85.3 144.2 181.43 274.2 107.38 144.9 139.47 205.55 143.53 272.7 2.13 120.8-114.18 156.14-181.2 156.28h-251.87z" />
        <circle  transform="scale(0.2)translate(100, 700)" cx="1094.77" cy="777.98" r="171.02" />
        <circle  transform="scale(0.2)translate(100, 700)" r="171.02" cy="302.02" cx="1734.44" />
    </mask>
  </defs>
  <rect x="0" y="0" width="1920" height="1080"/>
</svg>
