<svg>
    <clippath
       id="clipper"
       >

          <path
             style="fill:#ffffff"
             d="m 38.510297,66.40392 c 0.62707,-0.464633 1.934659,-1.483716 2.753165,-2.409938 2.416093,-2.734053 2.386219,-5.657104 -14.83493,-29.132836 C 20.686824,27.034094 18.543216,22.403331 18.528653,17.795298 19.805304,6.3225924 29.216646,7.0186617 34.694092,7.0186617 c 4.798222,-0.062173 11.03439,0 15.920776,0 l -1.495321,1.0477789 c -2.825849,1.9502864 -4.794401,4.0158354 -3.758396,7.2214414 0.761149,2.291602 6.301731,10.668591 13.406715,20.270056 7.920425,10.703427 10.278794,15.182457 10.605391,20.141856 0.146647,8.934725 -8.439256,11.536683 -13.395721,11.548255 l -18.606479,0 z"
             id="path4311" />
          <path
             id="path4313"
             d="M 32.861673,54.694138 A 12.625166,12.625166 0 0 1 20.236507,67.319304 12.625166,12.625166 0 0 1 7.6113415,54.694138 12.625166,12.625166 0 0 1 20.236507,42.068972 12.625166,12.625166 0 0 1 32.861673,54.694138 Z"
             style="opacity:1;fill:#ffffff;fill-opacity:1;stroke:none;stroke-width:3;stroke-miterlimit:4;stroke-dasharray:none;stroke-opacity:1" />
          <path
             id="path4315"
             d="M 80.100332,19.53698 A 12.625166,12.625166 0 0 1 67.475166,32.162146 12.625166,12.625166 0 0 1 54.85,19.53698 12.625166,12.625166 0 0 1 67.475166,6.9118137 12.625166,12.625166 0 0 1 80.100332,19.53698 Z"
             style="opacity:1;fill:#ffffff;fill-opacity:1;stroke:none;stroke-width:3;stroke-miterlimit:4;stroke-dasharray:none;stroke-opacity:1" />

          <path
             id="path4319"
             d="m 38.510297,66.40392 c 0.62707,-0.464633 1.934659,-1.483716 2.753165,-2.409938 2.416093,-2.734053 2.386219,-5.657104 -14.83493,-29.132836 C 20.686824,27.034094 18.543216,22.403331 18.528653,17.795298 19.805304,6.3225924 29.216646,7.0186617 34.694092,7.0186617 c 4.798222,-0.062173 11.03439,0 15.920776,0 l -1.495321,1.0477789 c -2.825849,1.9502864 -4.794401,4.0158354 -3.758396,7.2214414 0.761149,2.291602 6.301731,10.668591 13.406715,20.270056 7.920425,10.703427 10.278794,15.182457 10.605391,20.141856 0.146647,8.934725 -8.439256,11.536683 -13.395721,11.548255 l -18.606479,0 z"
             style="fill:#ffffff" />
          <path
             id="path4321"
             d="M 32.861673,54.694138 A 12.625166,12.625166 0 0 1 20.236507,67.319304 12.625166,12.625166 0 0 1 7.6113415,54.694138 12.625166,12.625166 0 0 1 20.236507,42.068972 12.625166,12.625166 0 0 1 32.861673,54.694138 Z"
             style="opacity:1;fill:#ffffff;fill-opacity:1;stroke:none;stroke-width:3;stroke-miterlimit:4;stroke-dasharray:none;stroke-opacity:1" />
          <path
             id="path4323"
             d="M 80.100332,19.53698 A 12.625166,12.625166 0 0 1 67.475166,32.162146 12.625166,12.625166 0 0 1 54.85,19.53698 12.625166,12.625166 0 0 1 67.475166,6.9118137 12.625166,12.625166 0 0 1 80.100332,19.53698 Z"
             style="opacity:1;fill:#ffffff;fill-opacity:1;stroke:none;stroke-width:3;stroke-miterlimit:4;stroke-dasharray:none;stroke-opacity:1" />
    </clippath>
</svg>
