<?xml version="1.0" encoding="UTF-8" standalone="no"?>
<svg
   xmlns:dc="http://purl.org/dc/elements/1.1/"
   xmlns:cc="http://creativecommons.org/ns#"
   xmlns:rdf="http://www.w3.org/1999/02/22-rdf-syntax-ns#"
   xmlns:svg="http://www.w3.org/2000/svg"
   xmlns="http://www.w3.org/2000/svg"
   xmlns:sodipodi="http://sodipodi.sourceforge.net/DTD/sodipodi-0.dtd"
   xmlns:inkscape="http://www.inkscape.org/namespaces/inkscape"
   viewBox="0 0 940 1080"
   id="svg2"
   version="1.1"
   inkscape:version="0.91 r13725"
   sodipodi:docname="speedshop_double_s_peekabo.svg"
   width="940"
   height="1080">
  <metadata
     id="metadata26">
    <rdf:RDF>
      <cc:Work
         rdf:about="">
        <dc:format>image/svg+xml</dc:format>
        <dc:type
           rdf:resource="http://purl.org/dc/dcmitype/StillImage" />
        <dc:title></dc:title>
      </cc:Work>
    </rdf:RDF>
  </metadata>
  <defs
     id="defs24" />
  <sodipodi:namedview
     pagecolor="#ffffff"
     bordercolor="#666666"
     borderopacity="1"
     objecttolerance="10"
     gridtolerance="10"
     guidetolerance="10"
     inkscape:pageopacity="0"
     inkscape:pageshadow="2"
     inkscape:window-width="1723"
     inkscape:window-height="1066"
     id="namedview22"
     showgrid="false"
     inkscape:zoom="0.22269547"
     inkscape:cx="1150.7059"
     inkscape:cy="566.76953"
     inkscape:window-x="0"
     inkscape:window-y="0"
     inkscape:window-maximized="0"
     inkscape:current-layer="svg2"
     fit-margin-top="0"
     fit-margin-left="0"
     fit-margin-right="0"
     fit-margin-bottom="0" />
  <path
     style="opacity:1;fill:#000000;fill-opacity:1;stroke:none;stroke-width:3;stroke-miterlimit:4;stroke-dasharray:none;stroke-opacity:1"
     d="m 0,0 0,1080 939.99998,0 0,-1080 L 0,0 Z m 281.1543,414.66406 c 28.944,3e-5 52.4082,23.46418 52.4082,52.40821 0,28.94403 -23.4642,52.40817 -52.4082,52.4082 -28.9441,2e-5 -52.4082,-23.46413 -52.4082,-52.4082 0,-28.94407 23.4641,-52.40823 52.4082,-52.40821 z m 278.6211,0 c 28.944,3e-5 52.4062,23.46418 52.4062,52.40821 0,28.94403 -23.4622,52.40817 -52.4062,52.4082 -28.9441,2e-5 -52.4082,-23.46413 -52.4082,-52.4082 0,-28.94407 23.4641,-52.40823 52.4082,-52.40821 z m -390.3418,0.34766 c 14.2123,0.0122 29.0478,0.10937 41.6777,0.10937 l -6.1426,4.35743 c -11.743,8.09148 -19.917,16.59767 -15.6015,29.95898 3.1536,9.4193 26.1422,44.19238 55.6035,84.02734 32.9053,44.39938 42.7395,62.98893 43.9844,83.57032 0.6639,37.01332 -34.9797,47.84327 -55.5196,47.88476 l -77.1816,0 4.6484,-3.40234 c 2.6556,-1.90876 8.0486,-6.14148 11.4512,-9.95899 10.0417,-11.36956 9.9602,-23.48635 -61.5352,-120.91601 -23.818,-32.49038 -32.7812,-51.70148 -32.7812,-70.78906 5.2698,-47.63597 44.3999,-44.73243 67.0976,-44.73243 7.469,-0.0934 15.7715,-0.11665 24.2989,-0.10937 z m 278.6211,0 c 14.2124,0.0122 29.0458,0.10937 41.6757,0.10937 l -6.1406,4.35743 c -11.743,8.09148 -19.917,16.59767 -15.6015,29.95898 3.1535,9.4193 26.1422,44.19238 55.6035,84.02734 32.9053,44.39938 42.7394,62.98893 43.9843,83.57032 0.6639,37.01332 -34.9816,47.84327 -55.5214,47.88476 l -77.1797,0 4.6465,-3.40234 c 2.6556,-1.90876 8.0506,-6.14148 11.4531,-9.95899 10.0418,-11.36956 9.9583,-23.48635 -61.5371,-120.91601 -23.818,-32.49038 -32.7793,-51.70148 -32.7793,-70.78906 5.2698,-47.63597 44.3981,-44.73243 67.0957,-44.73243 7.469,-0.0934 15.7734,-0.11665 24.3008,-0.10937 z M 85.1328,560.51953 c 28.9441,-2e-5 52.4062,23.46413 52.4062,52.4082 0,28.94407 -23.4621,52.40823 -52.4062,52.40821 -28.944,-3e-5 -52.4082,-23.46418 -52.4082,-52.40821 0,-28.94403 23.4642,-52.40817 52.4082,-52.4082 z m 278.6191,0 c 28.9441,-2e-5 52.4082,23.46413 52.4082,52.4082 0,28.94407 -23.4641,52.40823 -52.4082,52.40821 -28.944,-3e-5 -52.4062,-23.46418 -52.4062,-52.40821 0,-28.94403 23.4622,-52.40817 52.4062,-52.4082 z"
     id="rect4210"
     inkscape:connector-curvature="0" />
</svg>
