<svg xmlns="http://www.w3.org/2000/svg" preserveAspectRatio="xMinYMin meet" viewBox="0 0 1649.77 195.19"><g letter-spacing="0" word-spacing="0" font-family="Shrikhand"><path d="M16.57 81.43c.4 28.38 47.62 30.2 48.03 46.22 0 6.9-5.47 10.74-12.16 10.74-3.6 0-6-.4-9.3-1.3 3.7-16.4-9.3-27.8-23.9-27.8-8.9 0-16 3.6-18.4 11.7-5.7 20.8 18 33.2 58.1 33.2 32.7 0 52.7-11.6 57-29.4 8.1-35.1-53.7-36.1-53.9-55.1-.2-6.1 5.1-9.4 11.6-9.4 2 0 4.3.4 6.5 1-4.1 13.2 8.1 22.9 23.3 22.9 13.8 0 21.3-6.9 21.1-16.4-.6-13.6-20.44-23.5-54.5-23.5-35.24 0-53.7 15.2-53.3 36.9z" style="line-height:125%;-inkscape-font-specification:Shrikhand"/><path d="M179.33 136.97c-2.23 0-4.26-.8-5.88-2.43l16-52.8c4.26-6.5 8.72-7.7 10.34-7.7 5 0 8.3 2.9.2 31.8-7.9 28-14.8 31.2-20.7 31.2zm-8.1-90.58c-16.22 0-35.27 5.2-36.9 11.7-1.82 6.7 9.53 5.9 6.5 15.4l-29.6 97.1c-3.44 12.2-10.74 9.5-12.36 15.4-1.2 3.5 1.83 6.1 8.92 6.1h46.4c8.5 0 12.1-1.4 13.1-4.8 1.6-5.4-8.7-5-5.1-16l6.5-21.7c7 4.1 16 5.9 24.3 5.9 27.9 0 52.7-16.6 61.2-51.3 8.5-34.4-4.1-58.5-30.8-58.5-10.8 0-21.5 5.5-31 17.7-1.3-10.6-9.4-16.9-21.3-16.9zM324.5 62.2c1.83 0 3.04 1.82 3.24 5.67.3 12.16-5.6 27.15-19.4 25.33 4.3-20.88 12.2-31 16.2-31zm-62 33.43c-8.1 39.52 16.8 58.56 49.64 58.56 32.5 0 47.7-20.7 47.5-33.7 0-2-.8-2.7-2.2-2.7-4.2 0-16.4 6.4-28.3 6.4-12.5 0-22.3-4.1-22.1-19.1 23.9 3.4 61.8 1.2 67.5-23.7 3.9-17.3-5-36.3-48-36.3-31.4 0-56.9 16-63.8 50.2zM438.1 62.2c1.82 0 3.03 1.82 3.24 5.67.2 12.16-5.6 27.15-19.4 25.33 4.3-20.88 12.2-31 16.2-31zm-62 33.43c-8.1 39.52 16.8 58.56 49.63 58.56 32.43 0 47.63-20.7 47.42-33.7 0-2-.8-2.7-2.23-2.7-4.3 0-16.5 6.4-28.4 6.4-12.6 0-22.3-4.1-22.1-19.1 23.9 3.4 61.8 1.2 67.5-23.7 3.8-17.3-5.1-36.3-48.1-36.3-31.4 0-57 16-63.9 50.2zm250.97-66.47c4.26-13.98-.4-25.33-21.48-25.33-16.2 0-35.3 5.27-36.9 11.55-1.6 6.7 9.7 5.88 6.7 15.6l-6.9 22.7c-6.3-5.07-14-8.1-26.2-8.1-33.5 0-55.8 35.66-55.1 72.54.4 21.8 16.8 36 34.8 36 10.3 0 20-4.5 27.5-14 3.6 8.3 14.4 14 28 14 17.8 0 31.8-13.2 31.6-24.1 0-2.3-.8-4.7-2.3-4.7-1.6 0-2.6 4.2-6.5 4.2-2.3 0-3.5-2-2.5-5.3l29-95.3zm-78.62 89.57c-2.03 6.5-4.26 9.12-7.9 9.12-5.07 0-7.3-3.85-7.3-11.15-.4-19.65 11.35-52.08 23.9-52.08 2.85 0 5.08 1 7.1 2.8l-15.8 51.2zm84.46-37.3c.4 28.38 47.7 30.2 48.1 46.22 0 6.9-5.4 10.74-12.1 10.74-3.6 0-6-.4-9.3-1.3 3.7-16.4-9.3-27.8-23.9-27.8-8.9 0-16 3.6-18.4 11.7-5.6 20.9 18.1 33.2 58.2 33.2 32.6 0 52.7-11.6 56.9-29.4 8.1-35.1-53.7-36.1-53.9-55.1-.2-6.1 5.1-9.4 11.6-9.4 2.1 0 4.3.4 6.5 1-4 13.2 8.1 22.9 23.3 22.9 13.8 0 21.3-6.9 21.1-16.4-.6-13.6-20.4-23.5-54.5-23.5-35.2 0-53.7 15.2-53.3 36.9zm132.8-66.05c-1.6 6.7 9.7 5.67 6.7 15.6L741.5 132.1c-3.65 12.16-10.94 9.53-12.77 15.2-1 3.65 2.03 6.3 9.33 6.3h46.2c8.7 0 12.16-1.64 13.37-5.08 1.42-5.3-8.9-4.7-5.47-16.1l12.77-41.1v.4c3.65-11.5 9.93-15 14.18-15 4.1 0 7.5 3.3 4.9 9.97l-11.1 29.1c-2.4 6.3-3.6 12.1-3.6 16.8.2 13.7 11.6 22.7 29.4 22.7 22.9 0 34.7-13 34.5-24.2 0-2.2-.9-4.5-2.3-4.5s-2.7 4.3-6.5 4.3c-2.2 0-3.5-2.2-2.2-5.5l12.4-40c6.9-22.3-4.9-39.3-25.6-39.3-12.4 0-24.5 3.7-35.9 18.5l11-35.7c4.2-14-.4-25.34-21.5-25.34-16.2 0-35.3 5.24-36.9 11.52zm115.6 84.9c-6.9 29.8 6.7 55.13 53.5 55.13 36.1 0 65.5-21.4 73.4-55.1 6.7-28.1-5.8-53.9-52-53.9-36 0-67.1 21.9-74.8 53.9zm73 .2c-9.9 32.23-15.4 37.7-20.2 37.3-5 0-9.1-3.65 1.2-37.1 9.5-30.6 15.4-36.26 20.3-36.26 5.1 0 9 4.2-1.2 36z" style="line-height:125%;-inkscape-font-specification:Shrikhand"/><path d="M1064.36 136.97c-2.23 0-4.25-.8-5.87-2.43l16-52.8c4.2-6.5 8.7-7.7 10.3-7.7 5 0 8.3 2.9.2 31.8-7.9 28-14.8 31.2-20.7 31.2zm-8.1-90.58c-16.2 0-35.26 5.2-36.88 11.7-1.83 6.7 9.52 5.9 6.48 15.4l-29.6 97.1c-3.43 12.2-10.73 9.5-12.35 15.4-1.2 3.5 1.9 6.1 9 6.1h46.4c8.5 0 12.2-1.4 13.2-4.8 1.7-5.4-8.7-5-5-16l6.5-21.7c7.1 4.1 16 5.9 24.3 5.9 28 0 52.7-16.6 61.2-51.3 8.6-34.4-4-58.5-30.8-58.5-10.7 0-21.4 5.5-31 17.7-1.2-10.5-9.3-16.8-21.2-16.8z" style="line-height:125%;-inkscape-font-specification:Shrikhand"/></g><path fill="gray" d="M1205.92 134.5c-5.2 0-8.94-3.75-5.82-13.73h-.2c.6-1.24 1.03-2.5 1.44-3.94l13.5-44.07c2.3-3.33 6.25-5.2 9.37-5.2 5.2 0 9 6.24 1.5 32.43-7.9 28.4-13.7 34.5-19.7 34.5zm23.5-108.52C1233.77 12.06 1229 0 1207.37 0c-16.63 0-35.96 5.4-37.83 12.06-1.67 6.65 9.98 5.82 6.86 15.8l-34.72 112.87c-2.5 8.1 1.67 12.9 10.2 12.9h9.13c7.7 0 12.7-2.7 18.1-7.3l7.5-6.43c6.7 9.77 18.1 15.6 34.3 15.6 26.6 0 50.5-17.06 59.9-54.27 8.3-33.67-6.2-58.4-31.6-58.4-11.4 0-20.6 3.94-28.5 11.43l8.8-28.28zm83.08-14.13c-1.66 6.86 9.98 5.82 6.86 16l-31.6 103.73c-3.74 12.48-11.22 9.77-13.1 15.6-1.03 3.74 2.1 6.44 9.57 6.44h47.4c8.93 0 12.47-1.66 13.7-5.2 1.47-5.4-9.13-4.78-5.6-16.42l32.64-106.02c4.36-14.34-.42-25.98-22.04-25.98-16.63 0-36.17 5.4-37.83 11.85zm51.2 87.1c-7.08 30.56 6.85 56.54 54.86 56.54 37 0 67.15-22.1 75.25-56.6 6.9-28.9-6-55.3-53.4-55.3-37 0-68.8 22.4-76.7 55.3zm74.82.2c-10.2 33.06-15.8 38.67-20.8 38.25-5.18 0-9.34-3.74 1.26-38.04 9.77-31.4 15.8-37.2 20.8-37.2 5.18 0 9.13 4.36-1.26 37zm63.88 33.05c-1.67 6.24-.22 11.86 4.35 16.22-21.82 1.66-27.85 7.9-29.93 14.97-5 16.6 14.97 31.8 61.74 31.8 48.02 0 70.47-15.6 75.04-30.8 5.4-18.3-7.7-28.9-32.63-28.9h-31.2c-9.76 0-11.42-4.2-10.6-7.7.43-2.1 1.26-3.8 2.92-5.2 6.6 1 14.1 1.6 22.6 1.6 32.6 0 56.5-17.3 61.5-38.9 2.1-9.8 1.2-18.1-3.3-24.8-3.1-7.3-5-16.7-3.4-20.8 3.5 1.6 6.4 3.1 13.5 3.1 11 0 16.6-4.2 16.6-12.3-.2-11.7-14.2-21-27.5-21-15.2 0-20.8 10.2-20.6 19.5 0 6 2.5 13.5 6.6 20-9.18-4.2-22.07-6.5-38.9-6.5-32.64 0-56.97 17.4-61.95 38.8-3.55 15.4 1.03 27.2 14.33 34.5-12.9 4.13-17.9 10.6-19.54 16zm37.2 41.8c-11.23 0-16.63-2.92-16.84-9.78 0-3.33.62-6.03 2.5-8.3 3.32.4 6.65.6 10.6.6h19.95c6.1 0 8.4 3.54 6.7 8.12-2 6.23-11.4 9.35-22.8 9.35zm37.62-90.43c-5.4 17.66-10.4 23.28-17.04 23.28-6.45 0-7.7-5.4-2.5-23.28 5.4-18.1 10.2-23.3 16.84-23.3 6.45 0 8.1 5.42 2.7 23.3z" style="-inkscape-font-specification:Shrikhand" font-size="207.87" font-family="Shrikhand" letter-spacing="0" word-spacing="0"/></svg>