<svg height="60.40749" viewBox="0 0 72.488991 60.40749" width="72.488991" xmlns="http://www.w3.org/2000/svg"><g transform="translate(-7.611342 -6.911814)"><path d="m38.510297 66.40392c.62707-.464633 1.934659-1.483716 2.753165-2.409938 2.416093-2.734053 2.386219-5.657104-14.83493-29.132836-5.741708-7.827052-7.885316-12.457815-7.899879-17.065848 1.276651-11.4727056 10.687993-10.7766363 16.165439-10.7766363 4.798222-.062173 11.03439 0 15.920776 0l-1.495321 1.0477789c-2.825849 1.9502864-4.794401 4.0158354-3.758396 7.2214414.761149 2.291602 6.301731 10.668591 13.406715 20.270056 7.920425 10.703427 10.278794 15.182457 10.605391 20.141856.146647 8.934725-8.439256 11.536683-13.395721 11.548255h-18.606479z"/><circle cx="20.236507" cy="54.694138" r="12.625166"/><circle cx="67.475166" cy="19.53698" r="12.625166"/></g></svg>